<svg version="1.1" xmlns="http://www.w3.org/2000/svg" width="537" height="90" viewBox="0 0 537 90">
    <g stroke-linecap="round" fill-rule="evenodd" fill="#202937">
        <path d="m 0,53.75 h 11.667 q 0.583,3.75 3.291,5.708 2.709,1.959 7.209,1.959 3.75,0 5.791,-1.459 Q 30,58.5 30,55.75 30,51.583 24.333,50.333 L 15.25,48.417 Q 1.5,45.417 1.5,34.667 1.5,27.583 6.833,23.292 12.167,19 20.75,19 q 8.583,0 14.083,4.417 5.5,4.416 6,12 H 29.167 q -0.667,-3.5 -3,-5.334 -2.334,-1.833 -6.084,-1.833 -3.333,0 -5.333,1.375 -2,1.375 -2,3.958 0,1.834 1.333,3.042 1.334,1.208 4,1.792 l 9.334,2 q 6.916,1.5 10.416,4.958 3.5,3.458 3.5,9.375 0,7.5 -5.291,11.875 Q 30.75,71 21.667,71 12.25,71 6.333,66.333 0.417,61.667 0,53.75 Z" />
        <path d="M 63.417,90 H 51.333 V 20 h 11.75 v 7.5 h 0.334 Q 67.75,19 78,19 q 6.25,0 10.917,3.292 4.666,3.291 7.25,9.125 2.583,5.833 2.583,13.583 0,7.75 -2.583,13.625 Q 93.583,64.5 88.917,67.75 84.25,71 78,71 67.917,71 63.75,62.75 h -0.333 z m 0,-47.667 q 0,-5.75 3,-9.166 3,-3.417 8.25,-3.417 5.583,0 8.791,4.125 Q 86.667,38 86.667,45 q 0,7 -3.209,11.125 -3.208,4.125 -8.791,4.125 -5.25,-0.083 -8.25,-3.458 -3,-3.375 -3,-9.125 z" />
        <path d="m 152.917,43.5 v 4.417 h -34.5 q 0.666,6.166 3.958,9.625 3.292,3.458 8.292,3.458 3.833,0 6.375,-1.833 2.541,-1.834 3.458,-5 h 12.333 q -1,5.25 -4.125,9.041 -3.125,3.792 -7.75,5.792 -4.625,2 -10.208,2 -7,0 -12.458,-3.208 -5.459,-3.209 -8.584,-9.084 -3.125,-5.875 -3.125,-13.875 0,-7.916 3.042,-13.708 Q 112.667,25.333 118,22.167 123.333,19 130.25,19 q 6.5,0 11.583,2.875 5.084,2.875 8.084,8.375 3,5.5 3,13.25 z m -34.167,-4 q 1.083,-5.083 4.125,-7.833 3.042,-2.75 7.375,-2.75 4.333,0 7.292,2.708 2.958,2.708 3.541,7.875 z" />
        <path d="m 207.167,37.417 h -12.5 q -1,-3.834 -3.625,-5.709 -2.625,-1.875 -6.209,-1.875 -5.333,0 -8.666,4.084 Q 172.833,38 172.833,45 q 0,6.917 3.334,11.042 3.333,4.125 8.666,4.125 3.834,0 6.584,-2 2.75,-2 3.75,-6.334 h 12.166 q -0.916,6.334 -4.083,10.584 -3.167,4.25 -7.917,6.416 Q 190.583,71 184.833,71 177.917,71 172.458,67.792 167,64.583 163.875,58.75 160.75,52.917 160.75,45 q 0,-8 3.125,-13.833 3.125,-5.834 8.583,-9 Q 177.917,19 184.833,19 q 5.667,0 10.334,2.125 4.666,2.125 7.833,6.167 3.167,4.041 4.167,10.125 z" />
        <path d="m 248.25,70 h -13.667 q -4.75,0 -7.416,-2.5 Q 224.5,65 224.5,59.917 v -30.25 h -8 V 20 h 8.083 V 5 h 11.834 v 15 h 10.75 v 9.667 h -10.584 v 30.666 h 11.667 z" />
        <path d="m 272.333,40.25 h 12.834 v -2.167 q 0,-4.333 -2.459,-6.75 -2.458,-2.416 -6.791,-2.416 -3.667,0 -6.084,1.666 -2.416,1.667 -3.166,4.834 h -12.25 Q 255.833,27.583 261.5,23.292 267.167,19 275.917,19 q 9.833,0 15.291,5.083 5.459,5.084 5.459,14.334 V 70 h -11.25 v -7.5 h -0.334 q -2,4 -5.791,6.208 -3.792,2.209 -8.709,2.209 -7.583,0 -12.208,-4.25 -4.625,-4.25 -4.625,-11.167 0,-7.25 4.875,-11.25 4.875,-4 13.708,-4 z m 12.834,9.5 q 0,3.333 -1.584,5.958 -1.583,2.625 -4.291,4.125 -2.709,1.5 -6.125,1.5 -3.667,0 -5.834,-1.708 -2.166,-1.708 -2.166,-4.708 0,-2.917 2.041,-4.584 2.042,-1.666 5.709,-1.666 h 12.25 z" />
        <path d="m 353.333,37.417 h -12.5 q -1,-3.834 -3.625,-5.709 -2.625,-1.875 -6.208,-1.875 -5.333,0 -8.667,4.084 Q 319,38 319,45 q 0,6.917 3.333,11.042 3.334,4.125 8.667,4.125 3.833,0 6.583,-2 2.75,-2 3.75,-6.334 H 353.5 q -0.917,6.334 -4.083,10.584 -3.167,4.25 -7.917,6.416 Q 336.75,71 331,71 q -6.917,0 -12.375,-3.208 -5.458,-3.209 -8.583,-9.042 -3.125,-5.833 -3.125,-13.75 0,-8 3.125,-13.833 3.125,-5.834 8.583,-9 Q 324.083,19 331,19 q 5.667,0 10.333,2.125 4.667,2.125 7.834,6.167 3.166,4.041 4.166,10.125 z" />
        <path d="M 361.5,50.667 V 20 h 12.083 v 28.167 q 0,5.5 2.667,8.625 2.667,3.125 7.583,3.125 5.084,0 8.084,-3.292 3,-3.292 3,-8.792 V 20 H 407 v 50 h -11.75 v -8.083 h -0.333 q -2.084,4.416 -6,6.708 -3.917,2.292 -9.25,2.292 -5.417,0 -9.5,-2.542 -4.084,-2.542 -6.375,-7.125 Q 361.5,56.667 361.5,50.667 Z" />
        <path d="M 432.583,70 H 420.5 V 0 h 12.083 z" />
        <path d="m 469.333,40.25 h 12.834 v -2.167 q 0,-4.333 -2.459,-6.75 -2.458,-2.416 -6.791,-2.416 -3.667,0 -6.084,1.666 -2.416,1.667 -3.166,4.834 h -12.25 Q 452.833,27.583 458.5,23.292 464.167,19 472.917,19 q 9.833,0 15.291,5.083 5.459,5.084 5.459,14.334 V 70 h -11.25 v -7.5 h -0.334 q -2,4 -5.791,6.208 -3.792,2.209 -8.709,2.209 -7.583,0 -12.208,-4.25 -4.625,-4.25 -4.625,-11.167 0,-7.25 4.875,-11.25 4.875,-4 13.708,-4 z m 12.834,9.5 q 0,3.333 -1.584,5.958 -1.583,2.625 -4.291,4.125 -2.709,1.5 -6.125,1.5 -3.667,0 -5.834,-1.708 -2.166,-1.708 -2.166,-4.708 0,-2.917 2.041,-4.584 2.042,-1.666 5.709,-1.666 h 12.25 z" />
        <path d="M 519.583,70 H 507.5 V 20 h 11.583 v 8.833 h 0.334 q 1.666,-4.25 5.166,-6.791 3.5,-2.542 8.417,-2.542 h 4 v 10.667 h -4.583 q -6.5,0 -9.667,3.916 Q 519.583,38 519.583,44.5 Z" />
    </g>
    <circle cx="215.58299" cy="64.75" r="6.25" fill="#9BA1AE" />
    <circle cx="442.83401" cy="64.75" r="6.25" fill="#9BA1AE" />
</svg>
